<?xml version="1.0" encoding="utf-8"?>
<!-- Generator: Adobe Illustrator 25.3.1, SVG Export Plug-In . SVG Version: 6.00 Build 0)  -->
<svg version="1.1" id="Calque_1" xmlns="http://www.w3.org/2000/svg" xmlns:xlink="http://www.w3.org/1999/xlink" x="0px" y="0px"
	 viewBox="0 0 1500 1500" style="enable-background:new 0 0 1500 1500;" xml:space="preserve">
<style type="text/css">
	.st0{display:none;}
	.st1{display:inline;fill:#F0D595;}
	.st2{fill:#F0D595;}
	.st3{fill:#0E1524;}
	.st4{font-family:'Times-BoldItalic';}
	.st5{font-size:1249.4906px;}
	.st6{fill:#B0281A;}
	.st7{font-size:500.7947px;}
	.st8{font-size:194.5238px;}
	.st9{fill:#811B12;}
</style>
<g id="Calque_2_1_" class="st0">
	<rect class="st1" width="1500" height="1500"/>
</g>
<g id="Calque_1_1_">
	<circle class="st2" cx="747.49" cy="750.74" r="654.11"/>
	<text transform="matrix(1 0 0 1 321.0896 1114.6248)" class="st3 st4 st5">D</text>
	<polygon class="st2" points="949.8,636.27 1274.59,760.91 1233.93,915.86 1071.22,1076.25 705.4,966.92 	"/>
	<g>
		<text transform="matrix(1 0 0 1 611.3778 997.9626)" class="st6 st4 st7">1</text>
	</g>
	<g>
		<text transform="matrix(1 0 0 1 461.3739 1286.6628)" class="st3 st4 st8">CASSÉ</text>
	</g>
	<polygon class="st2" points="897.8,904.28 1129.07,909.75 1228.59,776.22 1215.69,764.66 945.65,718.1 	"/>
	<polygon class="st6" points="768.75,922.68 907.5,655.17 865.44,857.05 820.45,914.92 	"/>
	<polygon class="st9" points="1022.69,787.31 923.17,787.43 920.35,860.26 865.44,857.05 907.5,655.17 	"/>
	<polygon class="st6" points="1081.38,821.76 1113.13,754.96 1183.82,761.45 907.5,655.17 1022.69,787.31 	"/>
	<polygon class="st9" points="790.72,958.17 842.43,950.42 887.41,892.55 1040.91,1029.45 	"/>
	<polygon class="st6" points="942.52,894.75 945.39,821.77 1044.9,821.64 1041.15,1028.29 887.66,891.39 	"/>
	<polygon class="st9" points="1103.59,856.1 1135.35,789.3 1206.04,795.79 1041.15,1028.29 1044.9,821.64 	"/>
</g>
</svg>
